<svg width="16" height="22" viewBox="0 0 16 22" fill="none" xmlns="http://www.w3.org/2000/svg">
<path d="M5.18747 3.4389C5.18747 3.02469 5.52326 2.6889 5.93747 2.6889H10.0625C10.4767 2.6889 10.8125 3.02469 10.8125 3.4389C10.8125 3.85312 10.4767 4.1889 10.0625 4.1889H5.93747C5.52326 4.1889 5.18747 3.85312 5.18747 3.4389Z" fill="white"/>
<path d="M6.3842 18.2875C6.44117 18.3178 6.50325 18.3334 6.56608 18.3333C6.63113 18.3331 6.6953 18.3162 6.75381 18.2838C6.81233 18.2514 6.86368 18.2044 6.90405 18.1462L12.0416 10.9028C12.0861 10.84 12.1141 10.7641 12.1224 10.6839C12.1307 10.6037 12.1189 10.5225 12.0884 10.4496C12.0579 10.3767 12.01 10.3152 11.9501 10.2721C11.8902 10.229 11.8208 10.2061 11.75 10.2061H9.19978L9.86095 6.07833C9.86128 6.07608 9.86167 6.07385 9.86205 6.07163C9.86303 6.06594 9.864 6.06031 9.864 6.05454C9.87574 5.9476 9.85645 5.83922 9.80908 5.74596C9.76171 5.65271 9.68887 5.57972 9.60169 5.53816C9.51452 5.49659 9.4178 5.48874 9.32634 5.5158C9.23489 5.54287 9.15371 5.60335 9.09524 5.68801L3.9584 12.9314C3.91388 12.9942 3.88586 13.0701 3.87758 13.1503C3.86929 13.2305 3.88108 13.3117 3.91158 13.3846C3.94208 13.4575 3.99005 13.519 4.04993 13.5621C4.10981 13.6052 4.17916 13.6281 4.24996 13.6281H6.80069L6.14186 17.7548V17.7577C6.13101 17.8283 6.13384 17.9008 6.15016 17.97C6.16649 18.0392 6.19589 18.1035 6.23633 18.1583C6.27676 18.2132 6.32723 18.2573 6.3842 18.2875Z" fill="white"/>
<path fill-rule="evenodd" clip-rule="evenodd" d="M0.374924 3.43561C0.374924 1.88231 1.63412 0.623108 3.18742 0.623108H12.8124C14.3657 0.623108 15.6249 1.88231 15.6249 3.43561V18.5606C15.6249 20.1139 14.3657 21.3731 12.8124 21.3731H3.18742C1.63412 21.3731 0.374924 20.1139 0.374924 18.5606V3.43561ZM3.18742 2.12311C2.46255 2.12311 1.87492 2.71073 1.87492 3.43561V18.5606C1.87492 19.2855 2.46255 19.8731 3.18742 19.8731H12.8124C13.5373 19.8731 14.1249 19.2855 14.1249 18.5606V3.43561C14.1249 2.71073 13.5373 2.12311 12.8124 2.12311H3.18742Z" fill="white"/>
</svg>
