<svg width="17" height="18" viewBox="0 0 17 18" fill="none" xmlns="http://www.w3.org/2000/svg">
<path d="M2.65625 3.19922C4.28906 1.56641 6.23698 0.75 8.5 0.75C10.763 0.75 12.6966 1.56641 14.3008 3.19922C15.9336 4.80339 16.75 6.73698 16.75 9C16.75 11.263 15.9336 13.2109 14.3008 14.8438C12.6966 16.4479 10.763 17.25 8.5 17.25C6.23698 17.25 4.28906 16.4479 2.65625 14.8438C1.05208 13.2109 0.25 11.263 0.25 9C0.25 6.73698 1.05208 4.80339 2.65625 3.19922ZM13.3555 4.14453C12.0091 2.79818 10.3906 2.125 8.5 2.125C6.60938 2.125 4.99089 2.79818 3.64453 4.14453C2.29818 5.49089 1.625 7.10938 1.625 9C1.625 10.8906 2.29818 12.5091 3.64453 13.8555C4.99089 15.2018 6.60938 15.875 8.5 15.875C10.3906 15.875 12.0091 15.2018 13.3555 13.8555C14.7018 12.5091 15.375 10.8906 15.375 9C15.375 7.10938 14.7018 5.49089 13.3555 4.14453ZM7.98438 3.02734C8.1276 2.88411 8.29948 2.8125 8.5 2.8125C8.70052 2.8125 8.85807 2.88411 8.97266 3.02734C9.11589 3.14193 9.1875 3.29948 9.1875 3.5C9.1875 3.70052 9.11589 3.8724 8.97266 4.01562C8.85807 4.13021 8.70052 4.1875 8.5 4.1875C8.29948 4.1875 8.1276 4.13021 7.98438 4.01562C7.86979 3.8724 7.8125 3.70052 7.8125 3.5C7.8125 3.29948 7.86979 3.14193 7.98438 3.02734ZM4.11719 4.66016C4.26042 4.51693 4.41797 4.44531 4.58984 4.44531C4.79036 4.44531 4.96224 4.51693 5.10547 4.66016C5.2487 4.77474 5.32031 4.93229 5.32031 5.13281C5.32031 5.30469 5.2487 5.46224 5.10547 5.60547C4.96224 5.7487 4.79036 5.82031 4.58984 5.82031C4.41797 5.82031 4.26042 5.7487 4.11719 5.60547C4.0026 5.46224 3.94531 5.30469 3.94531 5.13281C3.94531 4.93229 4.0026 4.77474 4.11719 4.66016ZM11.8945 4.61719L12.8828 5.60547L9.83203 8.65625C9.86068 8.77083 9.875 8.88542 9.875 9C9.875 9.3724 9.73177 9.70182 9.44531 9.98828C9.1875 10.2461 8.8724 10.375 8.5 10.375C8.1276 10.375 7.79818 10.2461 7.51172 9.98828C7.25391 9.70182 7.125 9.3724 7.125 9C7.125 8.6276 7.25391 8.3125 7.51172 8.05469C7.79818 7.76823 8.1276 7.625 8.5 7.625C8.61458 7.625 8.72917 7.63932 8.84375 7.66797L11.8945 4.61719ZM2.48438 8.52734C2.6276 8.38411 2.79948 8.3125 3 8.3125C3.20052 8.3125 3.35807 8.38411 3.47266 8.52734C3.61589 8.64193 3.6875 8.79948 3.6875 9C3.6875 9.20052 3.61589 9.3724 3.47266 9.51562C3.35807 9.63021 3.20052 9.6875 3 9.6875C2.79948 9.6875 2.6276 9.63021 2.48438 9.51562C2.36979 9.3724 2.3125 9.20052 2.3125 9C2.3125 8.79948 2.36979 8.64193 2.48438 8.52734ZM13.4844 8.52734C13.6276 8.38411 13.7995 8.3125 14 8.3125C14.2005 8.3125 14.3581 8.38411 14.4727 8.52734C14.6159 8.64193 14.6875 8.79948 14.6875 9C14.6875 9.20052 14.6159 9.3724 14.4727 9.51562C14.3581 9.63021 14.2005 9.6875 14 9.6875C13.7995 9.6875 13.6276 9.63021 13.4844 9.51562C13.3698 9.3724 13.3125 9.20052 13.3125 9C13.3125 8.79948 13.3698 8.64193 13.4844 8.52734ZM4.11719 12.3945C4.26042 12.2513 4.41797 12.1797 4.58984 12.1797C4.79036 12.1797 4.96224 12.2513 5.10547 12.3945C5.2487 12.5378 5.32031 12.7096 5.32031 12.9102C5.32031 13.082 5.2487 13.2396 5.10547 13.3828C4.96224 13.4974 4.79036 13.5547 4.58984 13.5547C4.41797 13.5547 4.26042 13.4974 4.11719 13.3828C4.0026 13.2396 3.94531 13.082 3.94531 12.9102C3.94531 12.7096 4.0026 12.5378 4.11719 12.3945ZM11.8945 12.3945C12.0378 12.2513 12.1953 12.1797 12.3672 12.1797C12.5677 12.1797 12.7253 12.2513 12.8398 12.3945C12.9831 12.5378 13.0547 12.7096 13.0547 12.9102C13.0547 13.082 12.9831 13.2396 12.8398 13.3828C12.7253 13.4974 12.5677 13.5547 12.3672 13.5547C12.1953 13.5547 12.0378 13.4974 11.8945 13.3828C11.7513 13.2396 11.6797 13.082 11.6797 12.9102C11.6797 12.7096 11.7513 12.5378 11.8945 12.3945Z" fill="white"/>
</svg>
