<svg width="17" height="20" viewBox="0 0 17 20" fill="none" xmlns="http://www.w3.org/2000/svg">
<path d="M9.70711 0.500092L9.85355 0.646538L15.8536 6.64654L16 6.79298V6.2072L10.2929 0.500092H9.70711ZM9 1.00009V0.500092H2.50143C2.10529 0.502354 1.72612 0.66123 1.44669 0.942068C1.167 1.22316 1.01 1.60356 1.01 2.00009V2.0004L1 18.0001C1 18.0002 1 18.0003 1 18.0004C1.00007 18.3968 1.15707 18.7771 1.43669 19.0581C1.7161 19.3389 2.09523 19.4978 2.49134 19.5001H14.4992C14.8968 19.4987 15.2777 19.3402 15.5589 19.059C15.8401 18.7778 15.9986 18.3969 16 17.9993V7.50009H15.5H9.5H9V7.00009V1.00009Z" stroke="white"/>
<path d="M13.25 8.99997L6.76953 15.4804L4.03906 12.75L3.5 13.289L6.5 16.289L6.76953 16.5468L7.03906 16.289L13.7891 9.53903L13.25 8.99997Z" fill="white"/>
<path fill-rule="evenodd" clip-rule="evenodd" d="M13.2501 8.46964L14.3194 9.53903L7.29839 16.5601L6.76959 17.0658L6.23483 16.5543L2.96973 13.289L4.03912 12.2196L6.76959 14.9501L13.2501 8.46964ZM13.2501 9.5303L6.76959 16.0108L4.03912 13.2803L4.03039 13.289L6.76227 16.0209L6.76959 16.0279L6.77691 16.0209L13.2588 9.53903L13.2501 9.5303Z" fill="white"/>
</svg>
