<svg width="226" height="62" viewBox="0 0 226 62" fill="none" xmlns="http://www.w3.org/2000/svg">
<g clip-path="url(#clip0_18_7920)">
<rect width="26.5909" height="30" transform="translate(9 16)" fill="#7C1313"/>
</g>
<path d="M50.8949 43V20.504H55.2469V43H50.8949ZM54.0949 43V39.128H65.5509V43H54.0949ZM75.3459 43.32C73.7886 43.32 72.3806 42.968 71.1219 42.264C69.8846 41.5387 68.8926 40.568 68.1459 39.352C67.4206 38.1147 67.0579 36.7387 67.0579 35.224C67.0579 33.7093 67.4206 32.3547 68.1459 31.16C68.8713 29.944 69.8633 28.984 71.1219 28.28C72.3806 27.5547 73.7779 27.192 75.3139 27.192C76.8926 27.192 78.3006 27.5547 79.5379 28.28C80.7966 28.984 81.7886 29.944 82.5139 31.16C83.2393 32.3547 83.6019 33.7093 83.6019 35.224C83.6019 36.7387 83.2393 38.1147 82.5139 39.352C81.7886 40.568 80.7966 41.5387 79.5379 42.264C78.3006 42.968 76.9033 43.32 75.3459 43.32ZM75.3139 39.416C76.1033 39.416 76.7966 39.2453 77.3939 38.904C78.0126 38.5413 78.4819 38.0507 78.8019 37.432C79.1433 36.792 79.3139 36.0667 79.3139 35.256C79.3139 34.4453 79.1433 33.7307 78.8019 33.112C78.4606 32.4933 77.9913 32.0133 77.3939 31.672C76.7966 31.3093 76.1033 31.128 75.3139 31.128C74.5459 31.128 73.8633 31.3093 73.2659 31.672C72.6686 32.0133 72.1993 32.4933 71.8579 33.112C71.5166 33.7307 71.3459 34.4453 71.3459 35.256C71.3459 36.0667 71.5166 36.792 71.8579 37.432C72.1993 38.0507 72.6686 38.5413 73.2659 38.904C73.8633 39.2453 74.5459 39.416 75.3139 39.416ZM93.0247 49.848C91.382 49.848 89.9314 49.5493 88.6727 48.952C87.414 48.376 86.4114 47.5547 85.6647 46.488L88.3207 43.832C88.918 44.536 89.5794 45.0693 90.3047 45.432C91.0514 45.816 91.9474 46.008 92.9927 46.008C94.294 46.008 95.318 45.6773 96.0647 45.016C96.8327 44.3547 97.2167 43.4373 97.2167 42.264V38.392L97.9207 35L97.2487 31.608V27.544H101.409V42.2C101.409 43.736 101.046 45.0693 100.321 46.2C99.6167 47.352 98.6354 48.248 97.3767 48.888C96.118 49.528 94.6674 49.848 93.0247 49.848ZM92.8327 42.584C91.446 42.584 90.198 42.2533 89.0887 41.592C87.9794 40.9093 87.1047 39.9813 86.4647 38.808C85.846 37.6347 85.5367 36.3227 85.5367 34.872C85.5367 33.4213 85.846 32.12 86.4647 30.968C87.1047 29.816 87.9794 28.9093 89.0887 28.248C90.198 27.5653 91.446 27.224 92.8327 27.224C93.9847 27.224 94.998 27.448 95.8727 27.896C96.7687 28.344 97.4727 28.9627 97.9847 29.752C98.4967 30.52 98.774 31.4267 98.8167 32.472V37.336C98.774 38.36 98.486 39.2773 97.9527 40.088C97.4407 40.8773 96.7367 41.496 95.8407 41.944C94.966 42.3707 93.9634 42.584 92.8327 42.584ZM93.6647 38.776C94.4327 38.776 95.094 38.616 95.6487 38.296C96.2247 37.9547 96.6727 37.496 96.9927 36.92C97.3127 36.3227 97.4727 35.6507 97.4727 34.904C97.4727 34.136 97.3127 33.464 96.9927 32.888C96.6727 32.312 96.2247 31.864 95.6487 31.544C95.094 31.2027 94.4327 31.032 93.6647 31.032C92.8967 31.032 92.2247 31.2027 91.6487 31.544C91.0727 31.864 90.6247 32.3227 90.3047 32.92C89.9847 33.496 89.8247 34.1573 89.8247 34.904C89.8247 35.6293 89.9847 36.2907 90.3047 36.888C90.6247 37.464 91.0727 37.9227 91.6487 38.264C92.2247 38.6053 92.8967 38.776 93.6647 38.776ZM112.616 43.32C111.059 43.32 109.651 42.968 108.392 42.264C107.155 41.5387 106.163 40.568 105.416 39.352C104.691 38.1147 104.328 36.7387 104.328 35.224C104.328 33.7093 104.691 32.3547 105.416 31.16C106.141 29.944 107.133 28.984 108.392 28.28C109.651 27.5547 111.048 27.192 112.584 27.192C114.163 27.192 115.571 27.5547 116.808 28.28C118.067 28.984 119.059 29.944 119.784 31.16C120.509 32.3547 120.872 33.7093 120.872 35.224C120.872 36.7387 120.509 38.1147 119.784 39.352C119.059 40.568 118.067 41.5387 116.808 42.264C115.571 42.968 114.173 43.32 112.616 43.32ZM112.584 39.416C113.373 39.416 114.067 39.2453 114.664 38.904C115.283 38.5413 115.752 38.0507 116.072 37.432C116.413 36.792 116.584 36.0667 116.584 35.256C116.584 34.4453 116.413 33.7307 116.072 33.112C115.731 32.4933 115.261 32.0133 114.664 31.672C114.067 31.3093 113.373 31.128 112.584 31.128C111.816 31.128 111.133 31.3093 110.536 31.672C109.939 32.0133 109.469 32.4933 109.128 33.112C108.787 33.7307 108.616 34.4453 108.616 35.256C108.616 36.0667 108.787 36.792 109.128 37.432C109.469 38.0507 109.939 38.5413 110.536 38.904C111.133 39.2453 111.816 39.416 112.584 39.416ZM130.789 43V20.504H133.829L135.141 24.856V43H130.789ZM146.341 43L132.997 25.72L133.829 20.504L147.173 37.784L146.341 43ZM146.341 43L145.093 38.776V20.504H149.477V43H146.341ZM160.315 43.32C158.907 43.32 157.637 42.968 156.507 42.264C155.376 41.56 154.491 40.6 153.851 39.384C153.211 38.168 152.891 36.8027 152.891 35.288C152.891 33.752 153.211 32.376 153.851 31.16C154.491 29.944 155.376 28.984 156.507 28.28C157.637 27.576 158.907 27.224 160.315 27.224C161.424 27.224 162.416 27.448 163.291 27.896C164.165 28.344 164.859 28.9733 165.371 29.784C165.904 30.5733 166.192 31.4693 166.235 32.472V38.04C166.192 39.064 165.904 39.9707 165.371 40.76C164.859 41.5493 164.165 42.1787 163.291 42.648C162.416 43.096 161.424 43.32 160.315 43.32ZM161.083 39.448C162.256 39.448 163.205 39.064 163.931 38.296C164.656 37.5067 165.019 36.4933 165.019 35.256C165.019 34.4453 164.848 33.7307 164.507 33.112C164.187 32.472 163.728 31.9813 163.131 31.64C162.555 31.2773 161.872 31.096 161.083 31.096C160.315 31.096 159.632 31.2773 159.035 31.64C158.459 31.9813 158 32.472 157.659 33.112C157.339 33.7307 157.179 34.4453 157.179 35.256C157.179 36.088 157.339 36.824 157.659 37.464C158 38.0827 158.459 38.5733 159.035 38.936C159.632 39.2773 160.315 39.448 161.083 39.448ZM164.795 43V38.84L165.467 35.064L164.795 31.352V27.544H168.955V43H164.795ZM172.923 43V27.544H177.115V43H172.923ZM183.003 43V33.88C183.003 32.984 182.715 32.2907 182.139 31.8C181.585 31.288 180.891 31.032 180.059 31.032C179.505 31.032 179.003 31.1493 178.555 31.384C178.107 31.5973 177.755 31.9173 177.499 32.344C177.243 32.7707 177.115 33.2827 177.115 33.88L175.483 33.08C175.483 31.8853 175.739 30.8507 176.251 29.976C176.785 29.1013 177.499 28.4293 178.395 27.96C179.291 27.4693 180.305 27.224 181.435 27.224C182.502 27.224 183.473 27.4693 184.347 27.96C185.222 28.4293 185.915 29.1013 186.427 29.976C186.939 30.8293 187.195 31.864 187.195 33.08V43H183.003ZM193.083 43V33.88C193.083 32.984 192.795 32.2907 192.219 31.8C191.665 31.288 190.971 31.032 190.139 31.032C189.606 31.032 189.105 31.1493 188.635 31.384C188.187 31.5973 187.835 31.9173 187.579 32.344C187.323 32.7707 187.195 33.2827 187.195 33.88L184.795 33.304C184.881 32.0667 185.211 31 185.787 30.104C186.363 29.1867 187.121 28.4827 188.059 27.992C188.998 27.48 190.043 27.224 191.195 27.224C192.347 27.224 193.382 27.4693 194.299 27.96C195.217 28.4293 195.942 29.112 196.475 30.008C197.009 30.904 197.275 31.9707 197.275 33.208V43H193.083ZM208.325 43.32C206.704 43.32 205.264 42.9787 204.005 42.296C202.747 41.592 201.744 40.632 200.997 39.416C200.272 38.2 199.909 36.8133 199.909 35.256C199.909 33.72 200.261 32.3547 200.965 31.16C201.691 29.944 202.672 28.984 203.909 28.28C205.147 27.5547 206.523 27.192 208.037 27.192C209.531 27.192 210.843 27.5333 211.973 28.216C213.125 28.8773 214.021 29.7947 214.661 30.968C215.323 32.12 215.653 33.432 215.653 34.904C215.653 35.1813 215.632 35.4693 215.589 35.768C215.568 36.0453 215.515 36.3653 215.429 36.728L202.437 36.76V33.624L213.477 33.592L211.781 34.904C211.739 33.9867 211.568 33.2187 211.269 32.6C210.992 31.9813 210.576 31.512 210.021 31.192C209.488 30.8507 208.827 30.68 208.037 30.68C207.205 30.68 206.48 30.872 205.861 31.256C205.243 31.6187 204.763 32.1413 204.421 32.824C204.101 33.4853 203.941 34.2747 203.941 35.192C203.941 36.1307 204.112 36.952 204.453 37.656C204.816 38.3387 205.328 38.872 205.989 39.256C206.651 39.6187 207.419 39.8 208.293 39.8C209.083 39.8 209.797 39.672 210.437 39.416C211.077 39.1387 211.632 38.7333 212.101 38.2L214.565 40.664C213.819 41.5387 212.901 42.2 211.813 42.648C210.747 43.096 209.584 43.32 208.325 43.32Z" fill="black"/>
<defs>
<clipPath id="clip0_18_7920">
<rect width="26.5909" height="30" fill="white" transform="translate(9 16)"/>
</clipPath>
</defs>
</svg>
