<svg width="21" height="16" viewBox="0 0 21 16" fill="none" xmlns="http://www.w3.org/2000/svg">
<path d="M19.6562 5.84584L18.7395 5.34167L10.4895 0.758339H10.3887C10.3325 0.734577 10.2742 0.716163 10.2145 0.703339H10.0403H9.87533C9.81271 0.716171 9.75135 0.734578 9.692 0.758339H9.59117L1.34117 5.34167C1.20009 5.42162 1.08275 5.53756 1.00112 5.67766C0.919478 5.81777 0.876465 5.97702 0.876465 6.13917C0.876465 6.30132 0.919478 6.46058 1.00112 6.60068C1.08275 6.74078 1.20009 6.85672 1.34117 6.93667L3.62367 8.20167V12.5467C3.62367 13.276 3.9134 13.9755 4.42912 14.4912C4.94485 15.0069 5.64432 15.2967 6.37367 15.2967H13.707C14.4363 15.2967 15.1358 15.0069 15.6515 14.4912C16.1673 13.9755 16.457 13.276 16.457 12.5467V8.20167L18.2903 7.17501V9.79667C18.2903 10.0398 18.3869 10.2729 18.5588 10.4449C18.7307 10.6168 18.9639 10.7133 19.207 10.7133C19.4501 10.7133 19.6833 10.6168 19.8552 10.4449C20.0271 10.2729 20.1237 10.0398 20.1237 9.79667V6.64334C20.1234 6.48091 20.08 6.32147 19.9978 6.18134C19.9157 6.04121 19.7978 5.92543 19.6562 5.84584ZM14.6237 12.5467C14.6237 12.7898 14.5271 13.0229 14.3552 13.1949C14.1833 13.3668 13.9501 13.4633 13.707 13.4633H6.37367C6.13055 13.4633 5.89739 13.3668 5.72549 13.1949C5.55358 13.0229 5.457 12.7898 5.457 12.5467V9.21917L9.59117 11.5108L9.72867 11.5658H9.81117C9.88725 11.5754 9.96425 11.5754 10.0403 11.5658C10.1164 11.5754 10.1934 11.5754 10.2695 11.5658H10.352C10.4007 11.5556 10.4472 11.537 10.4895 11.5108L14.6237 9.21917V12.5467ZM10.0403 9.66834L3.67867 6.13001L10.0403 2.59167L16.402 6.13001L10.0403 9.66834Z" fill="white"/>
</svg>
