<svg width="23" height="22" viewBox="0 0 23 22" fill="none" xmlns="http://www.w3.org/2000/svg">
<path fill-rule="evenodd" clip-rule="evenodd" d="M11.4998 2.52084C9.34823 2.52084 7.604 4.26507 7.604 6.41668C7.604 8.56829 9.34823 10.3125 11.4998 10.3125C13.6514 10.3125 15.3957 8.56829 15.3957 6.41668C15.3957 4.26507 13.6514 2.52084 11.4998 2.52084ZM6.229 6.41668C6.229 3.50568 8.58884 1.14584 11.4998 1.14584C14.4108 1.14584 16.7707 3.50568 16.7707 6.41668C16.7707 9.32768 14.4108 11.6875 11.4998 11.6875C8.58884 11.6875 6.229 9.32768 6.229 6.41668Z" fill="white"/>
<path fill-rule="evenodd" clip-rule="evenodd" d="M2.93823 20.1667C2.93823 16.1142 6.91393 13.0625 11.4999 13.0625C16.0859 13.0625 20.0616 16.1142 20.0616 20.1667C20.0616 20.5464 19.7538 20.8542 19.3741 20.8542C18.9944 20.8542 18.6866 20.5464 18.6866 20.1667C18.6866 17.1241 15.6039 14.4375 11.4999 14.4375C7.39586 14.4375 4.31323 17.1241 4.31323 20.1667C4.31323 20.5464 4.00543 20.8542 3.62573 20.8542C3.24604 20.8542 2.93823 20.5464 2.93823 20.1667Z" fill="white"/>
</svg>
