<svg width="226" height="63" viewBox="0 0 226 63" fill="none" xmlns="http://www.w3.org/2000/svg">
<g clip-path="url(#clip0_18_8788)">
<rect width="26.5909" height="30" transform="translate(9 16.7998)" fill="#7C1313"/>
</g>
<path d="M50.8949 43.7998V21.3038H55.2469V43.7998H50.8949ZM54.0949 43.7998V39.9278H65.5509V43.7998H54.0949ZM75.3459 44.1198C73.7886 44.1198 72.3806 43.7678 71.1219 43.0638C69.8846 42.3385 68.8926 41.3678 68.1459 40.1518C67.4206 38.9145 67.0579 37.5385 67.0579 36.0238C67.0579 34.5091 67.4206 33.1545 68.1459 31.9598C68.8713 30.7438 69.8633 29.7838 71.1219 29.0798C72.3806 28.3545 73.7779 27.9918 75.3139 27.9918C76.8926 27.9918 78.3006 28.3545 79.5379 29.0798C80.7966 29.7838 81.7886 30.7438 82.5139 31.9598C83.2393 33.1545 83.6019 34.5091 83.6019 36.0238C83.6019 37.5385 83.2393 38.9145 82.5139 40.1518C81.7886 41.3678 80.7966 42.3385 79.5379 43.0638C78.3006 43.7678 76.9033 44.1198 75.3459 44.1198ZM75.3139 40.2158C76.1033 40.2158 76.7966 40.0451 77.3939 39.7038C78.0126 39.3411 78.4819 38.8505 78.8019 38.2318C79.1433 37.5918 79.3139 36.8665 79.3139 36.0558C79.3139 35.2451 79.1433 34.5305 78.8019 33.9118C78.4606 33.2931 77.9913 32.8131 77.3939 32.4718C76.7966 32.1091 76.1033 31.9278 75.3139 31.9278C74.5459 31.9278 73.8633 32.1091 73.2659 32.4718C72.6686 32.8131 72.1993 33.2931 71.8579 33.9118C71.5166 34.5305 71.3459 35.2451 71.3459 36.0558C71.3459 36.8665 71.5166 37.5918 71.8579 38.2318C72.1993 38.8505 72.6686 39.3411 73.2659 39.7038C73.8633 40.0451 74.5459 40.2158 75.3139 40.2158ZM93.0247 50.6478C91.382 50.6478 89.9314 50.3491 88.6727 49.7518C87.414 49.1758 86.4114 48.3545 85.6647 47.2878L88.3207 44.6318C88.918 45.3358 89.5794 45.8691 90.3047 46.2318C91.0514 46.6158 91.9474 46.8078 92.9927 46.8078C94.294 46.8078 95.318 46.4771 96.0647 45.8158C96.8327 45.1545 97.2167 44.2371 97.2167 43.0638V39.1918L97.9207 35.7998L97.2487 32.4078V28.3438H101.409V42.9998C101.409 44.5358 101.046 45.8691 100.321 46.9998C99.6167 48.1518 98.6354 49.0478 97.3767 49.6878C96.118 50.3278 94.6674 50.6478 93.0247 50.6478ZM92.8327 43.3838C91.446 43.3838 90.198 43.0531 89.0887 42.3918C87.9794 41.7091 87.1047 40.7811 86.4647 39.6078C85.846 38.4345 85.5367 37.1225 85.5367 35.6718C85.5367 34.2211 85.846 32.9198 86.4647 31.7678C87.1047 30.6158 87.9794 29.7091 89.0887 29.0478C90.198 28.3651 91.446 28.0238 92.8327 28.0238C93.9847 28.0238 94.998 28.2478 95.8727 28.6958C96.7687 29.1438 97.4727 29.7625 97.9847 30.5518C98.4967 31.3198 98.774 32.2265 98.8167 33.2718V38.1358C98.774 39.1598 98.486 40.0771 97.9527 40.8878C97.4407 41.6771 96.7367 42.2958 95.8407 42.7438C94.966 43.1705 93.9634 43.3838 92.8327 43.3838ZM93.6647 39.5758C94.4327 39.5758 95.094 39.4158 95.6487 39.0958C96.2247 38.7545 96.6727 38.2958 96.9927 37.7198C97.3127 37.1225 97.4727 36.4505 97.4727 35.7038C97.4727 34.9358 97.3127 34.2638 96.9927 33.6878C96.6727 33.1118 96.2247 32.6638 95.6487 32.3438C95.094 32.0025 94.4327 31.8318 93.6647 31.8318C92.8967 31.8318 92.2247 32.0025 91.6487 32.3438C91.0727 32.6638 90.6247 33.1225 90.3047 33.7198C89.9847 34.2958 89.8247 34.9571 89.8247 35.7038C89.8247 36.4291 89.9847 37.0905 90.3047 37.6878C90.6247 38.2638 91.0727 38.7225 91.6487 39.0638C92.2247 39.4051 92.8967 39.5758 93.6647 39.5758ZM112.616 44.1198C111.059 44.1198 109.651 43.7678 108.392 43.0638C107.155 42.3385 106.163 41.3678 105.416 40.1518C104.691 38.9145 104.328 37.5385 104.328 36.0238C104.328 34.5091 104.691 33.1545 105.416 31.9598C106.141 30.7438 107.133 29.7838 108.392 29.0798C109.651 28.3545 111.048 27.9918 112.584 27.9918C114.163 27.9918 115.571 28.3545 116.808 29.0798C118.067 29.7838 119.059 30.7438 119.784 31.9598C120.509 33.1545 120.872 34.5091 120.872 36.0238C120.872 37.5385 120.509 38.9145 119.784 40.1518C119.059 41.3678 118.067 42.3385 116.808 43.0638C115.571 43.7678 114.173 44.1198 112.616 44.1198ZM112.584 40.2158C113.373 40.2158 114.067 40.0451 114.664 39.7038C115.283 39.3411 115.752 38.8505 116.072 38.2318C116.413 37.5918 116.584 36.8665 116.584 36.0558C116.584 35.2451 116.413 34.5305 116.072 33.9118C115.731 33.2931 115.261 32.8131 114.664 32.4718C114.067 32.1091 113.373 31.9278 112.584 31.9278C111.816 31.9278 111.133 32.1091 110.536 32.4718C109.939 32.8131 109.469 33.2931 109.128 33.9118C108.787 34.5305 108.616 35.2451 108.616 36.0558C108.616 36.8665 108.787 37.5918 109.128 38.2318C109.469 38.8505 109.939 39.3411 110.536 39.7038C111.133 40.0451 111.816 40.2158 112.584 40.2158ZM130.789 43.7998V21.3038H133.829L135.141 25.6558V43.7998H130.789ZM146.341 43.7998L132.997 26.5198L133.829 21.3038L147.173 38.5838L146.341 43.7998ZM146.341 43.7998L145.093 39.5758V21.3038H149.477V43.7998H146.341ZM160.315 44.1198C158.907 44.1198 157.637 43.7678 156.507 43.0638C155.376 42.3598 154.491 41.3998 153.851 40.1838C153.211 38.9678 152.891 37.6025 152.891 36.0878C152.891 34.5518 153.211 33.1758 153.851 31.9598C154.491 30.7438 155.376 29.7838 156.507 29.0798C157.637 28.3758 158.907 28.0238 160.315 28.0238C161.424 28.0238 162.416 28.2478 163.291 28.6958C164.165 29.1438 164.859 29.7731 165.371 30.5838C165.904 31.3731 166.192 32.2691 166.235 33.2718V38.8398C166.192 39.8638 165.904 40.7705 165.371 41.5598C164.859 42.3491 164.165 42.9785 163.291 43.4478C162.416 43.8958 161.424 44.1198 160.315 44.1198ZM161.083 40.2478C162.256 40.2478 163.205 39.8638 163.931 39.0958C164.656 38.3065 165.019 37.2931 165.019 36.0558C165.019 35.2451 164.848 34.5305 164.507 33.9118C164.187 33.2718 163.728 32.7811 163.131 32.4398C162.555 32.0771 161.872 31.8958 161.083 31.8958C160.315 31.8958 159.632 32.0771 159.035 32.4398C158.459 32.7811 158 33.2718 157.659 33.9118C157.339 34.5305 157.179 35.2451 157.179 36.0558C157.179 36.8878 157.339 37.6238 157.659 38.2638C158 38.8825 158.459 39.3731 159.035 39.7358C159.632 40.0771 160.315 40.2478 161.083 40.2478ZM164.795 43.7998V39.6398L165.467 35.8638L164.795 32.1518V28.3438H168.955V43.7998H164.795ZM172.923 43.7998V28.3438H177.115V43.7998H172.923ZM183.003 43.7998V34.6798C183.003 33.7838 182.715 33.0905 182.139 32.5998C181.585 32.0878 180.891 31.8318 180.059 31.8318C179.505 31.8318 179.003 31.9491 178.555 32.1838C178.107 32.3971 177.755 32.7171 177.499 33.1438C177.243 33.5705 177.115 34.0825 177.115 34.6798L175.483 33.8798C175.483 32.6851 175.739 31.6505 176.251 30.7758C176.785 29.9011 177.499 29.2291 178.395 28.7598C179.291 28.2691 180.305 28.0238 181.435 28.0238C182.502 28.0238 183.473 28.2691 184.347 28.7598C185.222 29.2291 185.915 29.9011 186.427 30.7758C186.939 31.6291 187.195 32.6638 187.195 33.8798V43.7998H183.003ZM193.083 43.7998V34.6798C193.083 33.7838 192.795 33.0905 192.219 32.5998C191.665 32.0878 190.971 31.8318 190.139 31.8318C189.606 31.8318 189.105 31.9491 188.635 32.1838C188.187 32.3971 187.835 32.7171 187.579 33.1438C187.323 33.5705 187.195 34.0825 187.195 34.6798L184.795 34.1038C184.881 32.8665 185.211 31.7998 185.787 30.9038C186.363 29.9865 187.121 29.2825 188.059 28.7918C188.998 28.2798 190.043 28.0238 191.195 28.0238C192.347 28.0238 193.382 28.2691 194.299 28.7598C195.217 29.2291 195.942 29.9118 196.475 30.8078C197.009 31.7038 197.275 32.7705 197.275 34.0078V43.7998H193.083ZM208.325 44.1198C206.704 44.1198 205.264 43.7785 204.005 43.0958C202.747 42.3918 201.744 41.4318 200.997 40.2158C200.272 38.9998 199.909 37.6131 199.909 36.0558C199.909 34.5198 200.261 33.1545 200.965 31.9598C201.691 30.7438 202.672 29.7838 203.909 29.0798C205.147 28.3545 206.523 27.9918 208.037 27.9918C209.531 27.9918 210.843 28.3331 211.973 29.0158C213.125 29.6771 214.021 30.5945 214.661 31.7678C215.323 32.9198 215.653 34.2318 215.653 35.7038C215.653 35.9811 215.632 36.2691 215.589 36.5678C215.568 36.8451 215.515 37.1651 215.429 37.5278L202.437 37.5598V34.4238L213.477 34.3918L211.781 35.7038C211.739 34.7865 211.568 34.0185 211.269 33.3998C210.992 32.7811 210.576 32.3118 210.021 31.9918C209.488 31.6505 208.827 31.4798 208.037 31.4798C207.205 31.4798 206.48 31.6718 205.861 32.0558C205.243 32.4185 204.763 32.9411 204.421 33.6238C204.101 34.2851 203.941 35.0745 203.941 35.9918C203.941 36.9305 204.112 37.7518 204.453 38.4558C204.816 39.1385 205.328 39.6718 205.989 40.0558C206.651 40.4185 207.419 40.5998 208.293 40.5998C209.083 40.5998 209.797 40.4718 210.437 40.2158C211.077 39.9385 211.632 39.5331 212.101 38.9998L214.565 41.4638C213.819 42.3385 212.901 42.9998 211.813 43.4478C210.747 43.8958 209.584 44.1198 208.325 44.1198Z" fill="white"/>
<defs>
<clipPath id="clip0_18_8788">
<rect width="26.5909" height="30" fill="white" transform="translate(9 16.7998)"/>
</clipPath>
</defs>
</svg>
