<svg width="145" height="41" viewBox="0 0 145 41" fill="none" xmlns="http://www.w3.org/2000/svg">
<g clip-path="url(#clip0_18_10033)">
<path d="M3.77205 24.861C-0.111472 23.126 -1.26971 17.9212 1.59183 14.7289L1.65996 14.6595C3.49952 12.647 5.88414 11.3978 8.26876 10.1487C13.8556 7.23398 19.9193 4.18048 26.1875 5.15205C30.616 5.84603 34.7039 8.48314 39.1325 8.76073C44.6512 9.17711 49.8292 5.98482 55.3479 5.56844C61.3435 5.08265 67.271 7.85856 73.3348 7.37277C82.1919 6.6788 89.8908 -0.885544 98.6798 0.0860227C104.675 0.779999 109.785 5.36024 115.781 5.77663C120.21 6.05422 125.115 4.11108 128.862 6.54C131.724 8.41374 133.086 12.4388 136.425 13.1328C138.878 13.6186 141.739 12.0224 143.783 13.7574C144.873 14.7289 145.214 16.1863 144.873 17.6436C144.328 20.1419 142.352 21.7381 140.513 23.2648C136.766 26.2489 132.064 29.4412 127.636 27.7757C124.979 26.8041 122.662 24.167 119.937 24.9304C118.779 25.2774 117.825 26.1101 116.735 26.6653C114.623 27.7063 112.17 27.2899 109.853 27.2899C107.537 27.2899 104.812 28.1227 104.062 30.3434C103.449 32.0783 104.267 34.0215 104.744 35.8258C105.221 37.6995 104.88 40.2673 102.972 40.753C101.814 41.0306 100.656 40.4061 100.042 39.3651C98.4755 36.7974 99.7018 33.7439 98.8161 31.1068C98.0667 28.9554 95.9546 27.4981 93.7744 27.2205C92.4798 27.0817 91.1853 27.2899 89.8908 27.8451C87.8469 28.7472 85.5985 28.6778 83.4864 27.9839C82.6007 27.7063 81.7831 27.5675 80.8293 27.4981C78.5809 27.4287 76.1963 28.6778 75.5831 30.8292C75.1062 32.4253 75.4469 34.646 73.948 35.34C73.1985 35.687 72.3809 35.4788 71.7677 34.993C70.8139 34.1603 70.4051 32.9805 69.9282 31.8007C68.4293 28.0533 64.682 24.6528 60.8666 25.6938C57.3238 26.6653 54.8029 31.0374 51.26 30.274C48.3985 29.6494 47.0358 25.9713 44.1743 25.3468C40.4952 24.5834 37.6336 29.4412 33.8864 29.1636C32.5237 29.0248 31.3655 28.2615 30.071 27.7757C28.8446 27.2205 27.2776 27.0123 26.1875 27.9145C25.0973 28.8166 25.0973 30.4128 25.3699 31.8007C25.5743 32.5641 25.7787 33.3275 25.9831 34.0909C26.3237 35.687 25.8468 37.422 24.6886 38.6017C22.0995 41.2388 18.2842 39.0181 17.9435 36.1034C17.7391 34.7154 18.2842 33.2581 18.6248 31.8701C18.9655 30.4822 18.9655 28.8166 18.0116 27.7757C17.0578 26.7347 15.5589 26.6653 14.1281 26.5959C10.7896 26.4571 7.31491 26.3877 3.77205 24.861Z" fill="#D9F1FF"/>
<path d="M134.721 20.212C137.515 19.1016 140.104 17.5055 142.897 16.2563C143.578 15.9787 144.26 15.7011 144.941 15.4929C144.737 14.8684 144.396 14.2438 143.919 13.8274C141.875 12.0231 139.013 13.6886 136.561 13.2028C133.222 12.5088 131.86 8.48379 128.998 6.61005C125.251 4.18114 120.345 6.12427 115.917 5.84668C109.921 5.43029 104.811 0.85005 98.8156 0.156073C90.0266 -0.815494 82.3277 6.67945 73.4705 7.44283C67.4068 7.78981 61.4793 5.01391 55.4156 5.49969C49.8969 5.91608 44.7188 9.10837 39.2001 8.69198C34.7034 8.34499 30.6837 5.70788 26.2551 5.08331C20.0551 4.18114 13.9232 7.16523 8.33638 10.0799C5.95176 11.3291 3.49901 12.5782 1.72758 14.5908L1.65945 14.6602C1.18252 15.146 0.841864 15.7705 0.569336 16.3257C2.06824 18.7546 4.79352 20.2814 7.58693 20.4202C11.1298 20.559 14.6045 18.477 18.0792 19.1016C21.554 19.7262 24.2111 22.9879 27.6858 23.2655C31.5694 23.6125 35.2485 20.2814 38.9958 21.3223C40.6991 21.8081 42.2661 23.1961 44.0375 22.8491C45.332 22.5715 46.4221 21.3917 47.7166 21.5999C49.2155 21.8775 49.7606 23.8901 51.1232 24.5146C52.6903 25.2086 54.3254 23.8901 55.7562 22.9879C60.0485 20.2814 66.1123 21.0447 69.5189 24.7922C70.0639 25.3474 70.6771 25.8332 71.4266 26.1108C73.5386 26.9435 74.2881 25.4168 75.3782 24.3758C77.4222 22.4327 80.5562 22.4327 83.4178 22.5715C87.0288 22.7797 90.6398 22.9879 94.2508 23.6125C96.8398 24.0982 99.3606 24.7922 102.018 24.7228C104.607 24.6534 107.4 23.6125 108.763 21.8775C109.649 20.6978 111.352 20.6978 112.783 20.9754C114.213 21.3223 115.644 21.8775 117.007 21.5305C118.574 21.1141 119.732 19.6568 121.299 19.3792C122.934 19.1016 124.501 20.1426 126.068 20.7672C128.726 21.8081 131.928 21.2529 134.721 20.212Z" fill="white"/>
<path opacity="0.5" d="M0.297363 20.9048C0.842419 22.5703 2.00066 24.097 3.77209 24.8604C7.24682 26.3872 10.7897 26.4566 14.3325 26.5954C15.6952 26.5954 17.2622 26.7342 18.2161 27.7751C19.1699 28.8161 19.1018 30.4816 18.8293 31.8696C18.4886 33.2575 18.0117 34.6455 18.1479 36.1028C18.5567 39.0175 22.304 41.1689 24.893 38.6011C26.0512 37.4214 26.5282 35.7558 26.1875 34.0903C25.9831 33.3269 25.7787 32.5636 25.5743 31.8002C25.3018 30.4122 25.3018 28.8161 26.3919 27.9139C27.4139 27.0117 28.9809 27.2893 30.2754 27.7751C31.5018 28.3303 32.7282 29.0937 34.0908 29.1631C37.8381 29.4407 40.6996 24.5828 44.3787 25.3462C47.2403 25.9708 48.6029 29.6489 51.4645 30.2734C55.0073 31.0368 57.5963 26.6648 61.0711 25.6932C64.8864 24.6522 68.6337 28.1221 70.1326 31.8002C70.6095 32.9105 70.9502 34.1597 71.9722 34.9925C72.5854 35.4783 73.4711 35.6864 74.1524 35.3395C75.6513 34.6455 75.3106 32.4248 75.7876 30.8286C76.4007 28.6773 78.8535 27.4975 81.0337 27.4975C81.9194 27.4975 82.8051 27.7057 83.6909 27.9833C85.8029 28.6079 88.0513 28.6773 90.0953 27.8445C91.3898 27.2893 92.6843 27.0811 93.9788 27.2199C96.159 27.4975 98.3392 28.9549 99.0206 31.1062C99.9063 33.7433 98.6799 36.7968 100.247 39.3645C100.86 40.4055 102.018 40.9607 103.177 40.7525C105.152 40.2667 105.425 37.7684 104.948 35.8252C104.471 34.0209 103.654 32.1472 104.267 30.3428C105.016 28.1221 107.741 27.3587 110.058 27.2893C112.374 27.2893 114.827 27.7057 116.939 26.6648C118.029 26.1096 118.915 25.2074 120.141 24.9298C122.867 24.2358 125.183 26.8035 127.84 27.7751C132.337 29.4407 136.97 26.2484 140.717 23.2643C142.284 22.0151 143.919 20.6272 144.737 18.7534C143.102 19.5168 141.671 20.8354 139.9 21.2517C138.196 21.6681 136.289 21.2517 134.654 21.8763C131.996 22.8479 130.089 26.4566 126.887 24.2358C126.478 23.9582 126.137 23.6113 125.796 23.2643C125.796 23.2643 125.796 23.2643 125.796 23.1949C124.366 21.6681 122.117 21.2517 120.346 22.2927C116.53 24.5134 111.489 24.5134 106.924 25.6238C105.697 25.9014 104.403 26.3178 103.449 27.2199C102.495 28.1221 101.95 29.5795 102.427 30.7592C102.632 31.245 102.972 31.7308 103.04 32.2166C103.04 32.7717 102.427 33.3269 102.018 32.9105C101.882 32.7717 101.814 32.5636 101.814 32.286C101.201 28.6773 97.7942 26.1096 94.3194 25.2768C91.7986 24.7216 87.4381 25.138 85.1216 25.4156C84.1678 25.5544 83.2821 25.6238 82.3282 25.6238C79.9436 25.6932 75.0381 26.179 73.6755 28.6773C73.4029 29.1631 73.1304 29.7182 72.5854 29.7876C71.904 29.9264 71.4271 29.2325 71.0183 28.6079C68.293 24.444 62.9106 23.6807 58.0732 24.5134C56.5743 24.9298 55.5524 25.5544 54.5304 26.3872C53.5765 27.2199 52.282 27.9139 51.1238 27.5669C50.4425 27.3587 49.8974 26.7342 49.3524 26.2484C46.6952 23.9582 42.8798 23.5419 39.4051 23.8888C35.4534 24.2358 31.5699 25.4156 27.6183 24.9992C27.0051 24.9298 26.46 24.9298 25.8468 25.0686C22.5084 25.9708 23.0534 28.3997 23.1216 30.551C23.1897 31.939 22.5084 34.9925 21.4864 34.0903C20.1919 32.9799 22.0996 30.6204 21.8952 28.8855C21.7589 27.1505 21.0095 25.3462 19.6468 24.3052C17.8754 22.9173 15.4227 22.9867 13.1743 23.0561C10.1084 23.1255 6.97429 23.1949 3.97649 22.4315C2.75011 22.0151 1.52374 21.5293 0.297363 20.9048Z" fill="#B4DCFF"/>
</g>
<defs>
<clipPath id="clip0_18_10033">
<rect width="145" height="41" fill="white"/>
</clipPath>
</defs>
</svg>
